<svg width="48" height="38" viewBox="0 0 48 38" fill="none" xmlns="http://www.w3.org/2000/svg">
<path fill-rule="evenodd" clip-rule="evenodd" d="M45.917 37.6668C45.917 37.6668 49.0003 37.6668 49.0003 34.5557C49.0003 31.4446 45.917 22.1113 33.5837 22.1113C21.2503 22.1113 18.167 31.4446 18.167 34.5557C18.167 37.6668 21.2503 37.6668 21.2503 37.6668H45.917ZM21.3182 34.5557H45.8492C45.8636 34.554 45.878 34.5519 45.8923 34.5495L45.917 34.5433C45.9108 33.7219 45.4021 31.3388 43.5737 29.1922C41.8717 27.1793 38.8808 25.2224 33.5837 25.2224C28.2896 25.2224 25.2987 27.1824 23.5937 29.1922C21.7652 31.3388 21.2534 33.7251 21.2503 34.5433C21.2729 34.5477 21.2955 34.5518 21.3182 34.5557ZM33.5837 15.8891C35.2192 15.8891 36.7877 15.2335 37.9441 14.0666C39.1006 12.8997 39.7503 11.3171 39.7503 9.66683C39.7503 8.01659 39.1006 6.43395 37.9441 5.26705C36.7877 4.10016 35.2192 3.44461 33.5837 3.44461C31.9482 3.44461 30.3796 4.10016 29.2232 5.26705C28.0667 6.43395 27.417 8.01659 27.417 9.66683C27.417 11.3171 28.0667 12.8997 29.2232 14.0666C30.3796 15.2335 31.9482 15.8891 33.5837 15.8891ZM42.8337 9.66683C42.8337 10.8925 42.5944 12.1062 42.1295 13.2385C41.6647 14.3709 40.9833 15.3998 40.1244 16.2665C39.2655 17.1332 38.2457 17.8207 37.1235 18.2897C36.0012 18.7587 34.7984 19.0002 33.5837 19.0002C32.3689 19.0002 31.1661 18.7587 30.0438 18.2897C28.9216 17.8207 27.9019 17.1332 27.0429 16.2665C26.184 15.3998 25.5026 14.3709 25.0378 13.2385C24.5729 12.1062 24.3337 10.8925 24.3337 9.66683C24.3337 7.19148 25.3082 4.81751 27.0429 3.06717C28.7776 1.31683 31.1304 0.333496 33.5837 0.333496C36.0369 0.333496 38.3897 1.31683 40.1244 3.06717C41.8591 4.81751 42.8337 7.19148 42.8337 9.66683ZM21.053 22.9824C19.8196 22.5905 18.5482 22.3329 17.2605 22.2139C16.5369 22.1445 15.8105 22.1103 15.0837 22.1113C2.75033 22.1113 -0.333008 31.4446 -0.333008 34.5557C-0.333008 36.6308 0.693742 37.6668 2.75033 37.6668H15.7497C15.2926 36.6956 15.0646 35.6307 15.0837 34.5557C15.0837 31.4135 16.2461 28.2028 18.4445 25.521C19.1937 24.6064 20.0663 23.7508 21.053 22.9824ZM14.837 25.2224C9.69399 25.2846 6.77408 27.2135 5.09366 29.1922C3.25291 31.3513 2.75033 33.7437 2.75033 34.5557H12.0003C12.0003 31.3046 12.9962 28.0659 14.837 25.2224ZM4.29199 11.2224C4.29199 8.74703 5.26654 6.37306 7.00125 4.62272C8.73597 2.87238 11.0887 1.88905 13.542 1.88905C15.9952 1.88905 18.348 2.87238 20.0827 4.62272C21.8174 6.37306 22.792 8.74703 22.792 11.2224C22.792 13.6977 21.8174 16.0717 20.0827 17.822C18.348 19.5724 15.9952 20.5557 13.542 20.5557C11.0887 20.5557 8.73597 19.5724 7.00125 17.822C5.26654 16.0717 4.29199 13.6977 4.29199 11.2224ZM13.542 5.00016C11.9065 5.00016 10.338 5.65572 9.1815 6.82261C8.02503 7.9895 7.37533 9.57215 7.37533 11.2224C7.37533 12.8726 8.02503 14.4553 9.1815 15.6222C10.338 16.7891 11.9065 17.4446 13.542 17.4446C15.1775 17.4446 16.746 16.7891 17.9025 15.6222C19.059 14.4553 19.7087 12.8726 19.7087 11.2224C19.7087 9.57215 19.059 7.9895 17.9025 6.82261C16.746 5.65572 15.1775 5.00016 13.542 5.00016Z" fill="#727272"/>
</svg>
