<svg width="272" height="272" viewBox="0 0 272 272" fill="none" xmlns="http://www.w3.org/2000/svg">
<g filter="url(#filter0_d_536_4102)">
<circle cx="136" cy="133" r="125" fill="white"/>
<circle cx="135.672" cy="132.671" r="62.954" fill="white"/>
<path d="M176.075 114.605C176.976 126.609 178.546 138.973 174.957 150.729C170.483 165.406 153.417 171.508 140.385 163.417C137.03 161.335 135.075 161.366 131.672 163.386C115.552 172.953 96.1535 162.516 94.9591 143.802C94.6323 138.66 94.9112 133.474 94.9112 128.319H94.8802C94.8802 124.189 94.7703 120.056 94.9112 115.926C95.0211 112.65 93.404 108.286 99.6637 108.627C105.208 108.937 111.234 108.255 111.574 116.129C111.901 124.113 111.591 132.125 111.684 140.123C111.746 145.247 112.228 150.481 119.124 150.529C126.159 150.591 127.325 145.605 127.308 139.922C127.277 131.925 127.215 123.927 127.356 115.929C127.404 112.698 125.694 108.303 132.029 108.63C137.605 108.926 143.63 108.382 144.019 116.101C144.439 124.347 144.174 132.609 144.143 140.872C144.143 144.396 144.828 147.627 148.056 149.616C153.524 153.002 159.316 149.554 159.657 142.269C160.06 133.511 159.626 124.721 159.905 115.946C159.998 113.213 157.654 108.616 163.68 108.709C168.79 108.788 175.559 107.621 176.072 114.611L176.075 114.605Z" fill="#FF6C02"/>
<path d="M136 34.1201C81.39 34.1201 37.1191 78.391 37.1191 133.001C37.1191 187.61 81.39 231.881 136 231.881C190.609 231.881 234.88 187.61 234.88 133.001C234.88 78.391 190.609 34.1201 136 34.1201ZM136 189.65C104.716 189.65 79.3505 164.285 79.3505 133.001C79.3505 101.717 104.716 76.3514 136 76.3514C167.284 76.3514 192.649 101.717 192.649 133.001C192.649 164.285 167.284 189.65 136 189.65Z" fill="#FF6C02"/>
<path d="M112.542 183.968L81.196 217.044C80.4777 217.796 79.3198 217.909 78.4634 217.317C69.0205 210.801 60.6706 202.818 53.7405 193.693C53.1123 192.865 53.1714 191.704 53.8898 190.952L85.1907 157.924C86.1992 156.868 87.943 157.138 88.6022 158.442C93.5547 168.243 101.789 176.103 111.86 180.582C113.198 181.177 113.553 182.909 112.542 183.968Z" fill="#EA582B"/>
<path d="M86.7009 157.273C86.1572 157.273 85.6079 157.482 85.1853 157.924L53.8844 190.952C53.166 191.704 53.1069 192.865 53.7351 193.693C60.6624 202.818 69.0151 210.801 78.4581 217.317C78.8243 217.571 79.2469 217.695 79.6666 217.695C80.2272 217.695 80.7794 217.475 81.1907 217.044L112.537 183.968C113.548 182.909 113.193 181.177 111.855 180.582C101.784 176.106 93.5521 168.246 88.5968 158.443C88.2137 157.682 87.4616 157.273 86.7009 157.273Z" fill="#03A1AE"/>
<path d="M79.6666 47.9268C79.2469 47.9268 78.8243 48.0507 78.4581 48.3043C69.0151 54.8202 60.6652 62.8039 53.7351 71.9314C53.1069 72.7596 53.166 73.9202 53.8844 74.6724L85.7009 108.216C86.1234 108.658 86.6699 108.867 87.2165 108.867C87.9771 108.867 88.7292 108.458 89.1124 107.697C94.0649 97.8967 102.299 90.0369 112.37 85.5577C113.709 84.9633 114.064 83.2308 113.052 82.1716L81.1935 48.5775C80.7822 48.1465 80.2272 47.9268 79.6694 47.9268H79.6666Z" fill="#03A1AE"/>
<path d="M184.27 156.241C183.51 156.241 182.758 156.65 182.374 157.41C177.422 167.211 169.19 175.071 159.116 179.55C157.778 180.144 157.423 181.877 158.435 182.936L190.812 217.043C191.223 217.474 191.778 217.694 192.336 217.694C192.755 217.694 193.178 217.57 193.544 217.316C202.987 210.8 211.337 202.817 218.267 193.692C218.895 192.864 218.836 191.703 218.118 190.951L185.786 156.892C185.366 156.45 184.817 156.241 184.27 156.241Z" fill="#03A1AE"/>
<path d="M192.333 47.9268C191.772 47.9268 191.22 48.1465 190.809 48.5775L158.26 82.8561C157.248 83.9153 157.603 85.6479 158.942 86.2423C169.013 90.7187 177.244 98.5784 182.2 108.382C182.583 109.143 183.335 109.551 184.096 109.551C184.639 109.551 185.189 109.343 185.611 108.9L218.115 74.6724C218.833 73.9202 218.892 72.7596 218.264 71.9314C211.337 62.8067 202.984 54.823 193.541 48.3043C193.175 48.0507 192.753 47.9268 192.333 47.9268Z" fill="#03A1AE"/>
</g>
<defs>
<filter id="filter0_d_536_4102" x="0.184549" y="0.274678" width="271.631" height="271.631" filterUnits="userSpaceOnUse" color-interpolation-filters="sRGB">
<feFlood flood-opacity="0" result="BackgroundImageFix"/>
<feColorMatrix in="SourceAlpha" type="matrix" values="0 0 0 0 0 0 0 0 0 0 0 0 0 0 0 0 0 0 127 0" result="hardAlpha"/>
<feOffset dy="3.09013"/>
<feGaussianBlur stdDeviation="5.40773"/>
<feComposite in2="hardAlpha" operator="out"/>
<feColorMatrix type="matrix" values="0 0 0 0 0 0 0 0 0 0 0 0 0 0 0 0 0 0 0.15 0"/>
<feBlend mode="normal" in2="BackgroundImageFix" result="effect1_dropShadow_536_4102"/>
<feBlend mode="normal" in="SourceGraphic" in2="effect1_dropShadow_536_4102" result="shape"/>
</filter>
</defs>
</svg>
