<svg width="272" height="272" viewBox="0 0 272 272" fill="none" xmlns="http://www.w3.org/2000/svg">
<g filter="url(#filter0_d_536_4117)">
<circle cx="136" cy="133" r="125" fill="white"/>
</g>
<circle cx="135.672" cy="132.671" r="62.954" fill="white"/>
<path d="M135.999 34.1201C81.3896 34.1201 37.1187 78.391 37.1187 133.001C37.1187 187.61 81.3896 231.881 135.999 231.881C190.609 231.881 234.88 187.61 234.88 133.001C234.88 78.391 190.609 34.1201 135.999 34.1201ZM135.999 189.65C104.715 189.65 79.35 164.285 79.35 133.001C79.35 101.717 104.715 76.3514 135.999 76.3514C167.283 76.3514 192.649 101.717 192.649 133.001C192.649 164.285 167.283 189.65 135.999 189.65Z" fill="#FF6C02"/>
<path d="M112.542 183.968L81.1955 217.044C80.4772 217.796 79.3193 217.909 78.4629 217.317C69.02 210.801 60.6701 202.818 53.74 193.693C53.1118 192.865 53.1709 191.704 53.8893 190.952L85.1902 157.924C86.1987 156.868 87.9425 157.138 88.6017 158.442C93.5542 168.243 101.789 176.103 111.86 180.582C113.198 181.177 113.553 182.909 112.542 183.968Z" fill="#EA582B"/>
<path d="M86.7004 157.273C86.1567 157.273 85.6074 157.482 85.1848 157.924L53.8839 190.952C53.1656 191.704 53.1064 192.865 53.7346 193.693C60.6619 202.818 69.0146 210.801 78.4576 217.317C78.8238 217.571 79.2464 217.695 79.6661 217.695C80.2267 217.695 80.7789 217.475 81.1902 217.044L112.536 183.968C113.548 182.909 113.193 181.177 111.854 180.582C101.783 176.106 93.5517 168.246 88.5964 158.443C88.2132 157.682 87.4611 157.273 86.7004 157.273Z" fill="#03A1AE"/>
<path d="M79.6661 47.9268C79.2464 47.9268 78.8238 48.0507 78.4576 48.3043C69.0146 54.8202 60.6647 62.8039 53.7346 71.9314C53.1064 72.7596 53.1656 73.9202 53.8839 74.6724L85.7004 108.216C86.1229 108.658 86.6695 108.867 87.216 108.867C87.9766 108.867 88.7288 108.458 89.1119 107.697C94.0644 97.8967 102.299 90.0369 112.37 85.5577C113.708 84.9633 114.063 83.2308 113.052 82.1716L81.193 48.5775C80.7817 48.1465 80.2267 47.9268 79.6689 47.9268H79.6661Z" fill="#03A1AE"/>
<path d="M184.27 156.241C183.509 156.241 182.757 156.65 182.374 157.41C177.421 167.211 169.19 175.071 159.116 179.55C157.778 180.144 157.423 181.877 158.434 182.936L190.811 217.043C191.222 217.474 191.777 217.694 192.335 217.694C192.755 217.694 193.178 217.57 193.544 217.316C202.987 210.8 211.337 202.817 218.267 193.692C218.895 192.864 218.836 191.703 218.117 190.951L185.785 156.892C185.366 156.45 184.816 156.241 184.27 156.241Z" fill="#03A1AE"/>
<path d="M192.332 47.9268C191.772 47.9268 191.22 48.1465 190.808 48.5775L158.259 82.8561C157.248 83.9153 157.603 85.6479 158.941 86.2423C169.012 90.7187 177.244 98.5784 182.199 108.382C182.582 109.143 183.334 109.551 184.095 109.551C184.639 109.551 185.188 109.343 185.611 108.9L218.114 74.6724C218.833 73.9202 218.892 72.7596 218.264 71.9314C211.337 62.8067 202.984 54.823 193.541 48.3043C193.175 48.0507 192.752 47.9268 192.332 47.9268Z" fill="#03A1AE"/>
<path d="M106.832 110.862C105.921 109.951 105.921 108.475 106.832 107.564C107.743 106.653 109.219 106.653 110.13 107.564L134.134 131.568L158.138 107.564C159.049 106.653 160.525 106.653 161.436 107.564C162.347 108.475 162.347 109.951 161.436 110.862L137.432 134.866L161.436 158.87C162.347 159.781 162.347 161.257 161.436 162.168C160.525 163.079 159.049 163.079 158.138 162.168L134.134 138.164L110.13 162.168C109.219 163.079 107.743 163.079 106.832 162.168C105.921 161.257 105.921 159.781 106.832 158.87L130.836 134.866L106.832 110.862Z" fill="#EE5B06" stroke="#EE5B06" stroke-linecap="round" stroke-linejoin="round"/>
<defs>
<filter id="filter0_d_536_4117" x="0.184549" y="0.274678" width="271.631" height="271.631" filterUnits="userSpaceOnUse" color-interpolation-filters="sRGB">
<feFlood flood-opacity="0" result="BackgroundImageFix"/>
<feColorMatrix in="SourceAlpha" type="matrix" values="0 0 0 0 0 0 0 0 0 0 0 0 0 0 0 0 0 0 127 0" result="hardAlpha"/>
<feOffset dy="3.09013"/>
<feGaussianBlur stdDeviation="5.40773"/>
<feComposite in2="hardAlpha" operator="out"/>
<feColorMatrix type="matrix" values="0 0 0 0 0 0 0 0 0 0 0 0 0 0 0 0 0 0 0.15 0"/>
<feBlend mode="normal" in2="BackgroundImageFix" result="effect1_dropShadow_536_4117"/>
<feBlend mode="normal" in="SourceGraphic" in2="effect1_dropShadow_536_4117" result="shape"/>
</filter>
</defs>
</svg>
